<svg class="svg-secondary" width="90" height="90" viewBox="0 0 90 90" xmlns="http://www.w3.org/2000/svg">
<path d="M84.9218 0.0881348L77.4353 81.1785L44.9995 89.912L12.5631 81.1785L5.07812 0.0881348H84.9218ZM69.8361 16.5766H44.9703H19.6639L20.8742 26.369H44.9703H46.3238L44.9703 26.9324L21.7548 36.6014L22.5248 46.1732L44.9703 46.246L57.0004 46.2841L56.2303 59.0469L44.9701 62.2171V62.2071L44.8778 62.2328L34.0033 59.4876L33.3434 51.5651H33.3074H23.2207H23.1852L24.5055 66.8593L44.9705 72.9113V72.9004L45.0074 72.9113L65.3627 66.9696L68.0031 36.6014H44.9705H44.9137L44.9705 36.5768L68.8468 26.369L69.8361 16.5766Z" fill= "#6097ca" />
</svg>
