<svg width="35" height="35" viewBox="0 0 35 35" fill="none" xmlns="http://www.w3.org/2000/svg">
  <g clip-path="url(#clip0_6_65)">
    <path d="M16.2 5.91584C10.8264 6.51202 6.50423 10.9237 5.92014 16.2893C5.21924 22.251 8.84056 27.3781 13.9805 29.0474V26.305C13.9805 26.305 13.5132 26.4242 12.9292 26.4242C11.2937 26.4242 10.5928 24.9934 10.476 24.1588C10.3592 23.6818 10.1255 23.3241 9.7751 22.9664C9.42465 22.8472 9.30783 22.8472 9.30783 22.728C9.30783 22.4895 9.65828 22.4895 9.7751 22.4895C10.476 22.4895 11.0601 23.3241 11.2937 23.6818C11.8778 24.6357 12.5787 24.8742 12.9292 24.8742C13.3964 24.8742 13.7469 24.755 13.9805 24.6357C14.0973 23.8011 14.4478 22.9664 15.1487 22.4895C12.4619 21.8933 10.476 20.3433 10.476 17.7201C10.476 16.4085 11.0601 15.0969 11.8778 14.143C11.761 13.9046 11.6442 13.3084 11.6442 12.4738C11.6442 11.9968 11.6442 11.2814 11.9946 10.566C11.9946 10.566 13.6301 10.566 15.2655 12.1161C15.8496 11.8776 16.6673 11.7584 17.485 11.7584C18.3027 11.7584 19.1204 11.8776 19.8213 12.1161C21.34 10.566 23.0922 10.566 23.0922 10.566C23.3258 11.2814 23.3258 11.9968 23.3258 12.4738C23.3258 13.4276 23.209 13.9046 23.0922 14.143C23.9099 15.0969 24.494 16.2893 24.494 17.7201C24.494 20.3433 22.5081 21.8933 19.8213 22.4895C20.5222 23.0857 20.9895 24.1588 20.9895 25.2319V29.1666C25.779 27.6166 29.1667 23.0857 29.1667 17.8393C29.1667 10.6852 23.209 5.0812 16.2 5.91584Z" fill="#EE7107" />
    <circle cx="17.5" cy="17.5" r="16.5" stroke="#EE7107" stroke-width="2" />
  </g>
  <defs>
    <clipPath id="clip0_6_65">
      <rect width="35" height="35" fill="white" />
    </clipPath>
  </defs>
</svg>