<svg width="90" height="90" viewBox="0 0 90 90" fill="none" xmlns="http://www.w3.org/2000/svg">
<g clip-path="url(#clip0_77_241)">
<path d="M59.205 68.6964C55.3537 70.1664 50.895 71.0176 46.2412 71.0176C45.6975 71.0176 45.1575 71.0064 44.6175 70.9839L44.6925 70.9876C44.2462 71.0064 43.7212 71.0176 43.1925 71.0176C38.4562 71.0176 33.9187 70.1664 29.7225 68.6139L29.9925 68.7001L32.6287 73.0989L33.6862 87.1726C33.6862 87.9926 34.7712 88.6664 36.9412 89.1939C39.1425 89.7076 41.6737 90.0039 44.2725 90.0039C44.4487 90.0039 44.6287 90.0039 44.805 90.0001H44.7787C44.9437 90.0039 45.1425 90.0039 45.3375 90.0039C47.9137 90.0039 50.4225 89.7151 52.83 89.1639L52.605 89.2089C54.775 88.6814 55.86 88.0076 55.86 87.1876L56.7375 73.1139L59.205 68.6964ZM27.0112 46.1964C27.6525 44.0551 28.5525 42.1839 29.6962 40.4964L29.6512 40.5676C30.75 38.8614 32.235 37.4889 33.9862 36.5514L34.05 36.5214C34.4887 36.3226 35.0025 36.2064 35.5462 36.2064C36.225 36.2064 36.8625 36.3901 37.41 36.7051L37.3912 36.6939C37.8862 36.9526 38.2987 37.3089 38.6137 37.7401L38.6212 37.7514C38.8837 38.0364 39.0712 38.3964 39.1462 38.7939L39.15 38.8089C39.1987 38.9476 39.225 39.1089 39.225 39.2776C39.225 39.5251 39.165 39.7576 39.0562 39.9601L39.06 39.9526C38.9287 40.2151 38.6625 40.3914 38.355 40.3951C38.06 40.3951 37.6787 39.9851 37.2112 39.1651C36.5062 37.8751 35.5062 37.6989 34.2112 38.6364C32.9512 39.5851 31.9387 40.7889 31.2375 42.1801L31.2112 42.2364C30.405 43.6426 29.6925 45.2739 29.16 46.9876L29.1112 47.1639C28.86 47.7714 28.7175 48.4801 28.7175 49.2226C28.7175 49.7739 28.7962 50.3026 28.9462 50.8051L28.935 50.7676C29.115 51.0864 29.4487 51.3001 29.835 51.3001C30.9487 51.0789 31.8937 50.4751 32.5537 49.6389L32.5612 49.6276C33.4575 48.7801 34.2412 47.8276 34.9012 46.7851L34.9387 46.7251L35.8162 44.0889C36.0512 43.5039 36.4037 43.2114 36.8737 43.2114C37.3437 43.2114 37.5787 43.5339 37.5787 44.1789C37.5 45.1839 37.2487 46.1101 36.8512 46.9539L36.8737 46.9051C36.51 47.7601 36.1462 48.8139 35.8575 49.8976L35.8162 50.0739L34.3987 54.6339C34.275 55.0051 34.125 55.3239 33.945 55.6201L33.9562 55.5976C33.8512 55.8376 33.6262 56.0101 33.36 56.0401C33.3525 56.0401 33.3375 56.0401 33.3262 56.0401C33.12 56.0401 32.9362 55.9351 32.8312 55.7776C32.7487 55.5789 32.7 55.3464 32.7 55.1064C32.7 54.9676 32.715 54.8326 32.745 54.7051L32.7412 54.7164C33.1387 52.9389 33.5925 51.4314 34.14 49.9764L34.0612 50.2164L32.8312 51.4464C31.8975 52.4964 30.6037 53.2089 29.1487 53.3964L29.1187 53.4001C29.0812 53.4039 29.04 53.4039 28.995 53.4039C28.5225 53.4039 28.08 53.2726 27.7012 53.0439L27.7125 53.0514L29.1187 66.9451C29.2362 67.5301 30.76 68.1751 33.69 68.8801C36.8775 69.6639 40.5375 70.1101 44.3025 70.1101H44.61H44.595H44.8875C48.6525 70.1101 52.3125 69.6601 55.8187 68.8164L55.5037 68.8801C58.3187 68.1751 59.8425 67.5301 60.075 66.9451L62.01 50.4114L61.6575 50.5876C60.81 51.5326 59.82 52.3239 58.7137 52.9351L58.6575 52.9651C58.215 53.1639 57.6975 53.2764 57.1537 53.2764C56.9437 53.2764 56.7375 53.2576 56.535 53.2276L56.5575 53.2314C55.845 53.1139 55.4887 52.7614 55.4887 52.1739C55.8562 50.9176 56.5275 49.8489 57.42 49.0126L57.4237 49.0089L57.9525 48.1314C58.5375 47.5464 58.83 47.1064 58.83 46.8114C58.83 46.5164 58.595 46.3989 58.125 46.4589C57.5737 46.5526 57.0937 46.8039 56.7187 47.1639C56.1562 47.6814 55.6612 48.2589 55.2412 48.8889L55.2187 48.9226C54.6787 49.7064 54.18 50.6026 53.76 51.5439L53.7187 51.6489L53.0137 53.0551L51.2887 57.9751C51.0675 58.3126 50.7712 58.5789 50.4225 58.7626L50.4112 58.7701C50.2875 58.8526 50.1337 58.9051 49.9725 58.9051C49.8112 58.9051 49.6575 58.8564 49.53 58.7701C49.3275 58.6351 49.2 58.4101 49.1925 58.1551L49.3687 57.6264C49.8262 56.2989 50.3025 55.1964 50.8462 54.1314L50.775 54.2851L52.005 51.6489C52.1225 51.1789 52.1812 51.0026 52.1812 51.1201C51.495 51.8701 50.6775 52.4889 49.7662 52.9464L49.7175 52.9689C49.3425 53.1601 48.9 53.2726 48.4312 53.2726C48.2625 53.2726 48.1012 53.2576 47.94 53.2314L47.9587 53.2351C47.5162 53.1414 47.175 52.8001 47.0812 52.3651V52.3576L46.905 52.0051C46.1662 52.7589 45.1425 53.2276 44.0062 53.2351C43.2437 53.1176 43.0437 52.2389 43.4062 50.5989C42.7537 52.1364 41.2725 53.2014 39.54 53.2351C39.4762 53.2464 39.3975 53.2501 39.3262 53.2501C38.7187 53.2501 38.1937 52.8864 37.9575 52.3651L37.9537 52.3539C37.9387 52.1851 37.9312 51.9901 37.9312 51.7914C37.9312 50.5164 38.25 49.3164 38.8162 48.2664L38.7975 48.3076V48.1314C39.15 47.3114 39.56 46.3739 40.0275 45.3189C40.38 44.6139 40.8487 44.3789 41.4337 44.6139H41.61C41.9625 44.8489 42.0212 45.3176 41.7862 46.0201L41.2575 46.7251C40.845 47.4939 40.4325 48.4201 40.08 49.3801L40.0275 49.5414C39.7925 50.5964 39.88 51.1239 40.29 51.1239C40.7737 51.1089 41.2275 50.9814 41.625 50.7639L41.61 50.7714C42.3937 50.2014 43.02 49.4626 43.4437 48.6076L43.4587 48.5739C43.86 47.8914 44.19 47.1001 44.4112 46.2639L44.4262 46.1964L44.7787 45.2964C45.0137 44.7114 45.2775 44.4189 45.57 44.4189C45.8812 44.4226 46.1625 44.5576 46.3612 44.7676C46.5962 45.0026 46.5962 45.4126 46.3612 45.9976L45.1312 48.8101C44.8575 49.4251 44.67 50.1376 44.6062 50.8839V50.9101C44.6062 51.3801 45.0162 51.4389 45.8362 51.0864C46.3087 50.9026 46.7137 50.6664 47.0737 50.3739L47.0662 50.3814C47.1837 49.9114 48.1212 47.3901 49.8787 42.8176L51.6375 38.4189C51.7987 37.9051 52.2712 37.5376 52.83 37.5376H52.8712C53.0775 37.5751 53.2537 37.6689 53.3962 37.8039C53.6312 37.9789 53.69 38.3014 53.5725 38.7714L50.3962 46.3689C49.5762 48.4789 49.0762 49.8239 48.8962 50.4039C48.7162 50.9839 48.7512 51.2839 49.0012 51.3039C49.8212 51.3039 51.17 50.3039 53.0475 48.3039L53.2237 48.1276L53.7525 46.8976C53.8762 46.2901 54.12 45.7539 54.4612 45.2926L54.4537 45.3039C54.6887 45.0689 54.865 44.9514 54.9825 44.9514C55.4525 44.9514 55.6875 45.1514 55.6875 45.5514V45.5776C55.6875 45.9751 55.6237 46.3614 55.5037 46.7176L55.5112 46.6914L56.3887 45.8139C57.0862 45.0001 58.1137 44.4864 59.2612 44.4864C59.3325 44.4864 59.4075 44.4901 59.4787 44.4939H59.4675C60.21 44.5464 60.7912 45.1614 60.7912 45.9114C60.7912 45.9414 60.7912 45.9676 60.7875 45.9976C60.3975 47.5951 59.595 48.9639 58.5037 50.0401L58.1512 50.2164C57.9337 50.5201 57.7537 50.8689 57.63 51.2439L57.6225 51.2701C57.6225 51.3876 57.74 51.4464 57.975 51.4464C58.4587 51.3189 58.875 51.0714 59.205 50.7414L62.205 48.1051L64.8412 24.1839C61.4662 25.4101 57.57 26.1189 53.5087 26.1189C53.4112 26.1189 53.3137 26.1189 53.2125 26.1189H53.2275C50.7037 26.2876 47.7562 26.3814 44.7825 26.3814C41.8087 26.3814 38.865 26.2839 35.94 26.0964L36.3375 26.1151C36.255 26.1151 36.1575 26.1151 36.0562 26.1151C31.995 26.1151 28.0987 25.4064 24.4875 24.1051L24.7237 24.1801L27.0112 46.1964ZM65.1825 22.6239H65.0062C65.0062 22.1539 63.9212 21.6851 61.7512 21.2176C59.2875 20.7076 56.3587 20.3326 53.3737 20.1676L53.2162 20.1601L54.975 12.9601L65.0025 2.22761C65.355 1.99261 65.0625 1.46511 64.125 0.645107C63.8512 0.348857 63.4912 0.135107 63.0825 0.0488574L63.0675 0.0451074C62.715 -0.0123926 62.48 0.0163574 62.3625 0.131357L51.6412 11.3551L49.3537 19.9726L44.7825 19.7926C44.46 19.7889 44.0812 19.7851 43.6987 19.7851C38.9925 19.7851 34.365 20.1076 29.8312 20.7301L30.3562 20.6701C26.3712 21.2551 24.3787 21.9001 24.3787 22.6051C24.3787 23.7776 27.8962 24.5989 34.9312 25.0689C37.8787 25.2939 41.3175 25.4214 44.7825 25.4214C48.2475 25.4214 51.6862 25.2939 55.0875 25.0426L54.6337 25.0689C61.6687 24.6039 65.1862 23.7839 65.1862 22.6089L65.1825 22.6239ZM52.8825 23.5014C52.8825 23.6189 52.6475 23.7664 52.1775 23.9439C51.7125 24.1126 51.1725 24.2101 50.61 24.2101C50.5725 24.2101 50.535 24.2101 50.5012 24.2101C50.4712 24.2101 50.4375 24.2101 50.4 24.2101C49.8375 24.2101 49.3012 24.1126 48.7987 23.9364L48.8325 23.9476C48.3625 23.7726 48.1275 23.6251 48.1275 23.5051C48.1275 23.3851 48.3037 23.2676 48.6562 23.1526L48.48 23.3289C48.48 23.5639 49.125 23.6814 50.415 23.6814C51.705 23.6814 52.35 23.5639 52.35 23.3289L52.5262 23.1526C52.7537 23.2626 52.8675 23.3751 52.8675 23.4901L52.8825 23.5014Z" fill="#6097ca"/>
</g>
<defs>
<clipPath id="clip0_77_241">
<rect width="90" height="90" fill="white"/>
</clipPath>
</defs>
</svg>
