<svg width="35" height="35" viewBox="0 0 35 35" fill="none" xmlns="http://www.w3.org/2000/svg">
  <g clip-path="url(#clip0_6_88)">
    <circle cx="17.5" cy="17.5" r="16.5" stroke="#EE7107" stroke-width="2" />
    <path d="M12.8598 6C9.09437 6 6 9.09023 6 12.8598V22.4702C6 26.2356 9.09023 29.33 12.8598 29.33H22.4702C26.2356 29.33 29.33 26.2398 29.33 22.4702V12.8598C29.33 9.09437 26.2398 6 22.4702 6H12.8598ZM12.8598 8.12091H22.4702C25.0923 8.12091 27.2091 10.2377 27.2091 12.8598V22.4702C27.2091 25.0923 25.0923 27.2091 22.4702 27.2091H12.8598C10.2377 27.2091 8.12091 25.0923 8.12091 22.4702V12.8598C8.12091 10.2377 10.2377 8.12091 12.8598 8.12091ZM23.9283 10.4407C23.3939 10.4407 22.9673 10.8673 22.9673 11.4017C22.9673 11.9361 23.3939 12.3627 23.9283 12.3627C24.4627 12.3627 24.8893 11.9361 24.8893 11.4017C24.8893 10.8673 24.4627 10.4407 23.9283 10.4407ZM17.665 11.3023C14.1647 11.3023 11.3023 14.1647 11.3023 17.665C11.3023 21.1653 14.1647 24.0277 17.665 24.0277C21.1653 24.0277 24.0277 21.1653 24.0277 17.665C24.0277 14.1647 21.1653 11.3023 17.665 11.3023ZM17.665 13.4232C20.022 13.4232 21.9068 15.308 21.9068 17.665C21.9068 20.022 20.022 21.9068 17.665 21.9068C15.308 21.9068 13.4232 20.022 13.4232 17.665C13.4232 15.308 15.308 13.4232 17.665 13.4232Z" fill="#EE7107" />
  </g>
  <defs>
    <clipPath id="clip0_6_88">
      <rect width="35" height="35" fill="white" />
    </clipPath>
  </defs>
</svg>