<svg width="90" height="90" viewBox="0 0 90 90" fill="none" xmlns="http://www.w3.org/2000/svg">
<g clip-path="url(#clip0_74_214)">
<path fill-rule="evenodd" clip-rule="evenodd" d="M0.177198 0.0878906C0.077003 0.10248 0.0843858 0.223242 0.0915928 0.34418C0.0915928 30.1686 0.0915928 59.9885 0.0915928 89.8123C29.8626 90.0118 59.9992 89.8407 89.9121 89.8977C89.9121 59.9606 89.9121 30.0248 89.9121 0.0878906C60.0015 0.0878906 30.088 0.0878906 0.177198 0.0878906ZM45.6843 79.4825C43.6062 81.5776 40.3269 82.8114 36.2925 82.8114C29.6756 82.8114 26.0017 79.5876 23.6567 75.1279C25.914 73.6864 28.221 72.2939 30.5726 70.9451C31.5317 73.6279 34.7713 76.644 38.427 74.7872C40.7443 73.6096 40.4768 70.0393 40.4768 66.1644C40.4768 58.1184 40.4768 48.8362 40.4768 41.5775C40.4694 41.4566 40.4622 41.3358 40.5615 41.3213C43.3225 41.3213 46.0833 41.3213 48.8436 41.3213C48.8436 47.7879 48.8436 55.1029 48.8436 61.9806C48.8436 69.4686 49.3787 75.7596 45.6843 79.4825ZM82.7395 72.0557C82.2695 79.0666 76.5445 82.7895 68.8229 82.8114C61.2534 82.8332 56.4086 79.4693 53.4539 74.2743C55.5782 72.8123 57.9851 71.6346 60.1995 70.2626C61.9713 73.0331 65.04 75.696 69.5913 75.2991C72.4268 75.0519 75.7183 72.7406 73.8601 69.2378C72.9589 67.5397 70.7811 66.6772 68.8229 65.8232C62.6087 63.112 55.318 60.6252 56.0153 50.8832C56.2486 47.6288 57.7471 45.3417 59.6872 43.7121C61.6755 42.0421 64.3384 40.9229 67.8837 40.8097C74.3224 40.6035 77.8546 43.4675 80.2638 47.469C78.2135 49.0319 75.9547 50.3884 73.6894 51.7372C72.9461 49.4529 69.3575 47.227 66.3467 48.5786C64.9775 49.1926 63.7473 50.9975 64.4687 53.1882C65.112 55.1421 67.7363 56.2115 69.8474 57.1159C76.2374 59.8511 83.3785 62.5242 82.7395 72.0557Z" fill="#6097ca"/>
</g>
<defs>
<clipPath id="clip0_74_214">
<rect width="90" height="90" fill="white"/>
</clipPath>
</defs>
</svg>
