<svg width="35" height="35" viewBox="0 0 35 35" fill="none" xmlns="http://www.w3.org/2000/svg">
  <g clip-path="url(#clip0_6_71)">
    <circle cx="17.5" cy="17.5" r="16.5" stroke="#EE7107" stroke-width="2" />
    <path d="M17.665 6C11.223 6 6 11.223 6 17.665C6 24.107 11.223 29.33 17.665 29.33C24.107 29.33 29.33 24.107 29.33 17.665C29.33 11.223 24.107 6 17.665 6ZM13.2867 11.2522C14.1052 11.2522 14.6506 11.7975 14.6506 12.5246C14.6506 13.2517 14.1052 13.7971 13.1963 13.7971C12.3778 13.7981 11.8325 13.2517 11.8325 12.5246C11.8325 11.7975 12.3778 11.2522 13.2867 11.2522ZM14.7487 22.5254H11.8325V14.7487H14.7487V22.5254ZM24.4696 22.5254H21.7244V18.2755C21.7244 17.1002 20.9924 16.829 20.7183 16.829C20.4442 16.829 19.5285 17.0098 19.5285 18.2755C19.5285 18.4563 19.5285 22.5254 19.5285 22.5254H16.6929V14.7487H19.5295V15.8336C19.895 15.2008 20.6269 14.7487 21.9995 14.7487C23.3721 14.7487 24.4696 15.8336 24.4696 18.2755V22.5254Z" fill="#EE7107" />
  </g>
  <defs>
    <clipPath id="clip0_6_71">
      <rect width="35" height="35" fill="white" />
    </clipPath>
  </defs>
</svg>