<svg width="90" height="90" viewBox="0 0 90 90" fill="none" xmlns="http://www.w3.org/2000/svg">
<path d="M40.2553 62.4685C41.8022 62.5388 43.3828 62.5894 44.9831 62.5894C46.6003 62.5894 48.1978 62.5557 49.7644 62.4685C48.1978 64.4935 46.6509 66.285 45.014 67.9922L45.0365 67.9697C43.4081 66.2822 41.8444 64.4878 40.3706 62.6203L40.2553 62.4685ZM24.2297 60.2185C27.2756 60.9919 30.9909 61.65 34.7822 62.055L35.1506 62.086C37.4709 65.2725 39.8165 68.0766 42.3337 70.7147L42.3028 70.681C38.6156 74.7957 33.6403 77.6869 28.0125 78.7247L27.8578 78.7472C27.8465 78.7472 27.8353 78.7472 27.824 78.7472C27.1265 78.7472 26.4684 78.5757 25.8919 78.2719L25.9143 78.2832C23.5743 76.9472 22.559 71.8369 23.3494 65.2697C23.5378 63.6525 23.8472 61.951 24.2269 60.2157L24.2297 60.2185ZM65.8069 60.1819C66.1387 61.515 66.4509 63.2138 66.6731 64.9407L66.6984 65.1825C67.5056 71.7469 66.51 76.8516 64.1897 78.2157C63.6722 78.5025 63.0534 78.6713 62.3953 78.6713C62.3306 78.6713 62.2659 78.6685 62.2012 78.6657H62.2097C56.4356 77.611 51.4631 74.7394 47.7843 70.6753L47.7647 70.6529C50.2368 68.0569 52.5656 65.2585 54.7003 62.3138L54.8634 62.0775C59.0147 61.6444 62.7356 60.975 66.3609 60.061L65.8069 60.1791V60.1819ZM27.5175 49.6857C28.2206 51.0638 28.9575 52.4363 29.7675 53.8144C30.5756 55.185 31.4015 56.5238 32.2453 57.8307C29.804 57.4735 27.4472 57.0235 25.1944 56.475C25.8272 54.2616 26.6203 51.9694 27.5147 49.68L27.5175 49.6857ZM62.4712 49.6153C63.4022 51.9244 64.1925 54.2278 64.8478 56.461C62.5978 57.0122 60.2212 57.4791 57.7631 57.8307C58.6069 56.5116 59.4506 55.1532 60.2409 53.761C61.0312 52.3913 61.7709 50.9907 62.4769 49.6125L62.4712 49.6153ZM21.4284 34.5713C22.6547 38.7282 23.9709 42.2044 25.5037 45.5569L25.2928 45.045C23.9822 47.8716 22.6856 51.3282 21.6225 54.886L21.4762 55.4625C19.4906 54.8522 17.8931 54.2532 16.3378 53.581L16.6612 53.7047C10.575 51.1144 6.63748 47.7085 6.63748 45.0085C6.63748 42.3085 10.575 38.8857 16.6612 36.3066C18.1378 35.6738 19.7578 35.1028 21.4284 34.5713ZM68.5069 34.5572C70.2084 35.0832 71.8256 35.671 73.3387 36.3066C79.425 38.9082 83.3625 42.3085 83.3625 45.0085C83.3456 47.7085 79.4081 51.1228 73.3219 53.7075C71.8453 54.3403 70.2281 54.9085 68.5603 55.44C67.3228 51.2691 66.0065 47.7957 64.4794 44.4375L64.6931 44.9663C65.9981 42.1425 67.2975 38.686 68.3578 35.1282L68.5069 34.5488V34.5572ZM57.7406 32.1863C60.1847 32.5491 62.5387 32.9935 64.7915 33.5475C64.1587 35.7694 63.3684 38.0532 62.4712 40.3425C61.7681 38.9728 61.0312 37.5919 60.2212 36.2166C59.4309 34.8385 58.5872 33.4969 57.7434 32.1891L57.7406 32.1863ZM32.2256 32.1863C31.3819 33.511 30.5381 34.8666 29.7506 36.2644C28.9603 37.6341 28.2206 39.0122 27.5175 40.3903C26.5865 38.0841 25.7962 35.7863 25.1409 33.5475C27.3909 33.0216 29.7618 32.5519 32.2228 32.1919L32.2256 32.1863ZM45 31.2919C47.6015 31.2919 50.1919 31.41 52.74 31.6182C54.1669 33.6638 55.5525 35.8425 56.8969 38.1544C58.2037 40.4044 59.3962 42.6844 60.4744 44.9944C59.3915 47.2978 58.2047 49.5985 56.9137 51.8485C55.5778 54.1688 54.1969 56.3766 52.7653 58.4213C50.2059 58.6435 47.6128 58.7644 44.9972 58.7644C42.3956 58.7644 39.8053 58.6407 37.2572 58.4382C35.8312 56.3935 34.439 54.2053 33.1003 51.9019C31.7934 49.6519 30.6009 47.3719 29.5228 45.0619C30.5887 42.7528 31.7925 40.4466 33.0834 38.1938C34.4193 35.8735 35.8003 33.6741 37.2319 31.6294C39.7912 31.4044 42.3844 31.2863 45 31.2863V31.2919ZM44.9465 22.0641C46.5778 23.7516 48.1415 25.5432 49.6125 27.4107L49.725 27.5597C48.1781 27.4894 46.5975 27.4416 44.9972 27.4416C43.38 27.4416 41.7825 27.4753 40.2159 27.5597C41.7797 25.5347 43.3265 23.7432 44.9662 22.036L44.9437 22.0585L44.9465 22.0641ZM27.7875 11.3428C33.5615 12.4003 38.5312 15.2719 42.2128 19.3332L42.2325 19.3557C39.7603 21.9544 37.4315 24.7528 35.2969 27.7032L35.1337 27.9394C30.9853 28.3697 27.2644 29.0335 23.6419 29.9475L24.1931 29.8294C23.7994 28.1082 23.5068 26.4403 23.3015 24.84C22.4943 18.2757 23.49 13.171 25.8103 11.8125C26.3897 11.5397 27.0675 11.371 27.7819 11.3485H27.7903L27.7875 11.3428ZM62.1281 11.2725V11.295C62.1647 11.295 62.2069 11.2922 62.2519 11.2922C62.924 11.2922 63.5569 11.4582 64.1137 11.7507L64.0912 11.7394C66.4312 13.081 67.4465 18.1885 66.6562 24.7585C66.4678 26.3757 66.1584 28.08 65.7787 29.8182C62.7272 29.0363 59.0119 28.3753 55.2206 27.9732L54.8606 27.9422C52.5375 24.7528 50.1919 21.9488 47.6747 19.3078L47.7084 19.3416C51.3956 15.2353 56.3625 12.3441 61.979 11.3007L62.1365 11.2753L62.1281 11.2725ZM62.145 7.4419C55.2769 8.48534 49.3312 11.821 44.9887 16.6332L44.9662 16.6585C40.5928 11.8491 34.6472 8.53597 27.9478 7.5319L27.7903 7.51222C27.7537 7.51222 27.7087 7.51222 27.6637 7.51222C26.2828 7.51222 24.9862 7.87503 23.864 8.51065L23.9034 8.49097C19.0715 11.2782 17.9887 19.9632 20.4834 30.8616C9.78466 34.1663 2.82654 39.4482 2.82654 45.0141C2.82654 50.6025 9.82123 55.8985 20.5509 59.1778C18.0759 70.1185 19.1812 78.8175 24.0243 81.6019C25.0875 82.2122 26.3644 82.5694 27.7228 82.5694C27.7847 82.5694 27.8465 82.5694 27.9056 82.5666H27.8972C34.7653 81.5232 40.7109 78.1847 45.0534 73.3697L45.0759 73.3444C49.4494 78.1566 55.395 81.4697 62.0944 82.4738L62.2519 82.4935C62.294 82.4935 62.3475 82.4935 62.3981 82.4935C63.7706 82.4935 65.0615 82.1335 66.1781 81.5063L66.1387 81.526C70.9678 78.7416 72.0534 70.0566 69.5587 59.1553C80.2181 55.8788 87.1762 50.5857 87.1762 45.0113C87.1762 39.4228 80.1815 34.1269 69.4519 30.8391C71.9269 19.9097 70.8215 11.2022 65.9784 8.41503C64.904 7.79909 63.6159 7.43628 62.2434 7.43628C62.2069 7.43628 62.1703 7.43628 62.1337 7.43628H62.1394L62.145 7.4419ZM52.8384 45.0141C52.8384 49.3538 49.32 52.8722 44.9803 52.8722C40.6406 52.8722 37.1222 49.3538 37.1222 45.0141C37.1222 40.6744 40.6406 37.156 44.9803 37.156C47.1515 37.156 49.1147 38.0363 50.5378 39.4566C51.9609 40.8797 52.8384 42.8428 52.8384 45.0141Z" fill="#6097ca"/>
</svg>
