<svg width="80" height="80" viewBox="0 0 80 80" fill="none" xmlns="http://www.w3.org/2000/svg">
<g clip-path="url(#clip0_49_58)">
<mask id="mask0_49_58" style="mask-type:luminance" maskUnits="userSpaceOnUse" x="0" y="0" width="80" height="80">
<path d="M80 0H0V80H80V0Z" fill="white"/>
</mask>
<g mask="url(#mask0_49_58)">
<path d="M2.5 25V4.9875C2.5 3.605 3.6175 2.5 5 2.5H75C76.3825 2.5 77.5 3.605 77.5 4.9875V45M52.5 77.495L45 74.9875V62.5H55M55 52.5H45M77.5 75C77.5 76.3825 76.3825 77.5 75 77.5H65C63.6175 77.5 62.5 76.3825 62.5 75V55C62.5 53.6175 63.6175 52.5 65 52.5H75C76.3825 52.5 77.5 53.6175 77.5 55V75ZM37.5 75C37.5 76.3825 36.3825 77.5 35 77.5H5C3.6175 77.5 2.5 76.3825 2.5 75V35C2.5 33.6175 3.6175 32.5 5 32.5H35C36.3825 32.5 37.5 33.6175 37.5 35V75Z" stroke="#ef474d" stroke-width="6.25" stroke-linecap="round" stroke-linejoin="round"/>
</g>
</g>
<defs>
<clipPath id="clip0_49_58">
<rect width="80" height="80" fill="white"/>
</clipPath>
</defs>
</svg>
