<svg width="90" height="90" viewBox="0 0 90 90" fill="none" xmlns="http://www.w3.org/2000/svg">
<g clip-path="url(#clip0_74_220)">
<path d="M45 0C69.75 0 90 20.25 90 45C90 69.75 69.75 90 45 90C20.25 90 0 69.75 0 45C0 20.25 20.25 0 45 0ZM36 59.9063C36.5625 62.4375 36.5625 64.6875 36 66.6562L35.7187 67.5C35.7187 67.7813 35.4375 68.0625 35.4375 68.0625C34.875 69.1875 34.3125 70.0313 33.4688 71.1563C30.9375 73.9688 27.2812 75.0937 25.5937 74.25C23.9062 73.4062 24.75 69.1875 27.8438 66.0938C31.2188 62.7188 35.7187 60.4688 35.7187 60.4688L36 59.9063ZM73.125 19.125C71.1563 11.25 57.9375 8.4375 45.2812 12.9375C37.9687 15.75 29.8125 19.9688 23.9062 25.3125C16.875 31.7813 16.0312 37.4062 16.3125 39.6562C18 47.8125 29.25 53.4375 34.0312 57.375C32.625 57.9375 22.5 63 20.25 68.3438C17.7188 73.9688 20.5313 77.9063 22.5 78.1875C28.4063 79.875 34.5938 76.7813 37.6875 72C40.7813 67.2188 40.5 61.3125 39.0938 58.2187C41.0625 57.6562 43.0313 57.375 45.8438 57.9375C53.7188 58.7812 55.4063 63.8437 54.8438 65.8125C54.2812 67.7812 52.875 68.9062 52.3125 69.4687C51.75 69.75 51.4688 70.0312 51.75 70.0312C51.75 70.3125 52.0312 70.3125 52.5937 70.3125C53.1562 70.3125 56.8125 68.625 56.8125 64.6875C57.0937 59.9063 52.3125 54.5625 44.1562 54.5625C40.7812 54.5625 38.5312 54.8437 37.125 55.4062C37.125 55.125 36.8437 55.125 36.8437 55.125C31.7812 49.7812 22.5 45.8437 22.7812 38.5312C22.7812 36 23.9062 28.9687 40.7812 20.5312C54.5625 13.5 65.8125 15.4688 67.7813 19.6875C70.5938 25.5938 61.875 36.8437 47.5313 38.5312C41.9063 39.0937 39.0937 37.125 38.5312 36.2813C37.6875 35.4375 37.6875 35.4375 37.4063 35.4375C36.8438 35.7187 37.125 36.2812 37.4063 36.8437C37.9688 37.9687 39.6562 39.9375 42.75 41.0625C45.2812 41.9062 51.75 42.4687 59.625 39.375C68.3437 36 75.0937 26.7188 73.125 18.8438V19.125Z" fill="#6097ca"/>
</g>
<defs>
<clipPath id="clip0_74_220">
<rect width="90" height="90" fill="white"/>
</clipPath>
</defs>
</svg>
