<svg width="35" height="35" viewBox="0 0 35 35" fill="none" xmlns="http://www.w3.org/2000/svg">
<circle cx="17.5" cy="17.5" r="16.5" stroke="#EE7107" stroke-width="2"/>
<path d="M17.665 6.93311C23.5922 6.93311 28.3968 11.7377 28.3968 17.6649C28.3968 23.5921 23.5922 28.3967 17.665 28.3967C11.7378 28.3967 6.93323 23.5921 6.93323 17.6649C6.93323 11.7377 11.7378 6.93311 17.665 6.93311ZM21.367 22.0393C21.5644 21.4336 22.4892 15.3977 22.6035 14.2083C22.6381 13.8481 22.5242 13.6088 22.3012 13.5019C22.0315 13.3722 21.6321 13.437 21.1687 13.6041C20.5332 13.8332 12.4088 17.2828 11.9394 17.4825C11.4942 17.6714 11.0734 17.8777 11.0734 18.1763C11.0734 18.3863 11.198 18.5043 11.5414 18.627C11.8988 18.7544 12.7989 19.0274 13.3303 19.1739C13.8422 19.3153 14.425 19.1926 14.7516 18.9896C15.0978 18.7745 19.0933 16.1009 19.3802 15.8666C19.6667 15.6324 19.8954 15.9324 19.6611 16.1671C19.4269 16.4014 16.6842 19.0633 16.3226 19.4319C15.8835 19.8794 16.1952 20.3432 16.4897 20.5289C16.8261 20.7407 19.2454 22.3636 19.6098 22.6239C19.9742 22.8843 20.3438 23.0023 20.6821 23.0023C21.0203 23.0023 21.1986 22.5567 21.367 22.0393Z" fill="#EE7107"/>
</svg>
