<svg width="80" height="80" viewBox="0 0 80 80" fill="none" xmlns="http://www.w3.org/2000/svg">
<path d="M70 2.50004H50C48.0108 2.50004 46.1032 3.29022 44.6967 4.69674C43.2901 6.10326 42.5 8.01092 42.5 10V30C42.5 31.9892 43.2901 33.8968 44.6967 35.3033C46.1032 36.7099 48.0108 37.5 50 37.5H70C71.9891 37.5 73.8967 36.7099 75.3033 35.3033C76.7098 33.8968 77.5 31.9892 77.5 30V10C77.5 8.01092 76.7098 6.10326 75.3033 4.69674C73.8967 3.29022 71.9891 2.50004 70 2.50004ZM72.5 30C72.5 30.6631 72.2366 31.299 71.7677 31.7678C71.2989 32.2366 70.663 32.5 70 32.5H50C49.3369 32.5 48.701 32.2366 48.2322 31.7678C47.7633 31.299 47.5 30.6631 47.5 30V10C47.5 9.337 47.7633 8.70112 48.2322 8.23227C48.701 7.76343 49.3369 7.50004 50 7.50004H70C70.663 7.50004 71.2989 7.76343 71.7677 8.23227C72.2366 8.70112 72.5 9.337 72.5 10V30ZM4.99996 17.5C5.32665 17.4961 5.6494 17.4281 5.94996 17.3C6.25269 17.173 6.53166 16.9955 6.77496 16.775C7.12185 16.4235 7.35684 15.977 7.45028 15.4921C7.54371 15.0071 7.49141 14.5053 7.29996 14.05C7.18097 13.7432 7.00256 13.4628 6.77496 13.225C6.48631 12.924 6.12696 12.7 5.72961 12.5734C5.33226 12.4468 4.90954 12.4215 4.49996 12.5C4.34343 12.5278 4.19181 12.5783 4.04996 12.65C3.89041 12.7042 3.73901 12.7799 3.59996 12.875L3.22496 13.175C2.99736 13.4128 2.81894 13.6932 2.69996 14C2.56529 14.3161 2.49721 14.6565 2.49996 15C2.49996 15.6631 2.76335 16.299 3.23219 16.7678C3.70103 17.2366 4.33692 17.5 4.99996 17.5ZM11.7 10C12.19 9.99621 12.6682 9.84842 13.075 9.57504C15.7244 7.8208 18.9425 7.14143 22.075 7.67504C22.738 7.78444 23.4173 7.62597 23.9635 7.23449C24.5097 6.84301 24.8781 6.25058 24.9875 5.58754C25.0969 4.9245 24.9384 4.24516 24.5469 3.69896C24.1554 3.15276 23.563 2.78444 22.9 2.67504C18.5454 1.97353 14.086 2.92784 10.4 5.35004C9.92702 5.63061 9.55978 6.05927 9.35511 6.56966C9.15044 7.08005 9.11975 7.64369 9.26781 8.17328C9.41587 8.70287 9.73441 9.16887 10.1741 9.49911C10.6138 9.82936 11.1501 10.0054 11.7 10ZM29.525 8.12504C29.0318 8.56646 28.7338 9.18541 28.6963 9.8462C28.6588 10.507 28.8849 11.1557 29.325 11.65C31.3757 13.9473 32.5063 16.9206 32.5 20V30C32.5 30.6631 32.2366 31.299 31.7677 31.7678C31.2989 32.2366 30.663 32.5 30 32.5H20C17.4178 32.4986 14.8994 31.6974 12.7909 30.2067C10.6825 28.716 9.08741 26.609 8.22496 24.175C7.97355 23.5918 7.50962 23.1262 6.92736 22.8726C6.34509 22.6191 5.68816 22.5966 5.08993 22.8098C4.49171 23.023 3.99705 23.4559 3.70639 24.0205C3.41573 24.5852 3.35086 25.2393 3.52496 25.85C4.73265 29.255 6.96457 32.2027 9.91435 34.2886C12.8641 36.3745 16.3872 37.4963 20 37.5H30C31.9891 37.5 33.8967 36.7099 35.3033 35.3033C36.7098 33.8968 37.5 31.9892 37.5 30V20C37.5037 15.6934 35.9193 11.5366 33.05 8.32504C32.6085 7.83189 31.9896 7.5339 31.3288 7.49641C30.668 7.45892 30.0193 7.68498 29.525 8.12504ZM70 42.5H50C48.0108 42.5 46.1032 43.2902 44.6967 44.6967C43.2901 46.1033 42.5 48.0109 42.5 50V70C42.5 71.9892 43.2901 73.8968 44.6967 75.3034C46.1032 76.7099 48.0108 77.5 50 77.5H70C71.9891 77.5 73.8967 76.7099 75.3033 75.3034C76.7098 73.8968 77.5 71.9892 77.5 70V50C77.5 48.0109 76.7098 46.1033 75.3033 44.6967C73.8967 43.2902 71.9891 42.5 70 42.5ZM72.5 70C72.5 70.6631 72.2366 71.299 71.7677 71.7678C71.2989 72.2367 70.663 72.5 70 72.5H50C49.3369 72.5 48.701 72.2367 48.2322 71.7678C47.7633 71.299 47.5 70.6631 47.5 70V50C47.5 49.337 47.7633 48.7011 48.2322 48.2323C48.701 47.7634 49.3369 47.5 50 47.5H70C70.663 47.5 71.2989 47.7634 71.7677 48.2323C72.2366 48.7011 72.5 49.337 72.5 50V70ZM30 42.5H9.99996C8.01083 42.5 6.10318 43.2902 4.69666 44.6967C3.29013 46.1033 2.49996 48.0109 2.49996 50V70C2.49996 71.9892 3.29013 73.8968 4.69666 75.3034C6.10318 76.7099 8.01083 77.5 9.99996 77.5H30C31.9891 77.5 33.8967 76.7099 35.3033 75.3034C36.7098 73.8968 37.5 71.9892 37.5 70V50C37.5 48.0109 36.7098 46.1033 35.3033 44.6967C33.8967 43.2902 31.9891 42.5 30 42.5ZM32.5 70C32.5 70.6631 32.2366 71.299 31.7677 71.7678C31.2989 72.2367 30.663 72.5 30 72.5H9.99996C9.33692 72.5 8.70103 72.2367 8.23219 71.7678C7.76335 71.299 7.49996 70.6631 7.49996 70V50C7.49996 49.337 7.76335 48.7011 8.23219 48.2323C8.70103 47.7634 9.33692 47.5 9.99996 47.5H30C30.663 47.5 31.2989 47.7634 31.7677 48.2323C32.2366 48.7011 32.5 49.337 32.5 50V70Z" fill="#dd3838"/>
</svg>
