<svg width="80" height="80" viewBox="0 0 80 80" fill="none" xmlns="http://www.w3.org/2000/svg">
<path fill-rule="evenodd" clip-rule="evenodd" d="M49.6 27.2C49.6 32.5019 45.302 36.8 40 36.8C34.6979 36.8 30.4 32.5019 30.4 27.2C30.4 21.8981 34.6979 17.6 40 17.6C42.5459 17.6 44.9878 18.6114 46.7881 20.4118C48.5884 22.2121 49.6 24.6539 49.6 27.2Z" stroke="#ef474d" stroke-width="6" stroke-linecap="round" stroke-linejoin="round"/>
<path fill-rule="evenodd" clip-rule="evenodd" d="M51.2 46.4H28.8C24.3817 46.4 20.8 49.9818 20.8 54.4C20.8 58.8183 24.3817 62.4 28.8 62.4H51.2C55.6182 62.4 59.2 58.8183 59.2 54.4C59.2 49.9818 55.6182 46.4 51.2 46.4Z" stroke="#ef474d" stroke-width="6" stroke-linecap="round" stroke-linejoin="round"/>
</svg>
