<svg width="90" height="90" viewBox="0 0 90 90" fill="none" xmlns="http://www.w3.org/2000/svg">
<g clip-path="url(#clip0_2065_2)">
<path d="M31.0725 39.6675L32.9925 7.20373C33.0078 6.94971 33.107 6.70797 33.2747 6.51654C33.4424 6.32511 33.6689 6.19484 33.9187 6.14623L65.1637 0.0224834C65.3567 -0.0154116 65.5562 -0.00307905 65.743 0.0582976C65.9298 0.119674 66.0977 0.228035 66.2306 0.372983C66.3635 0.517931 66.457 0.694601 66.5019 0.886043C66.5469 1.07748 66.5419 1.27727 66.4875 1.46623L60.645 21.7275C60.5908 21.9161 60.5858 22.1154 60.6306 22.3065C60.6755 22.4976 60.7685 22.6739 60.9009 22.8188C61.0334 22.9636 61.2007 23.072 61.387 23.1338C61.5733 23.1955 61.7723 23.2084 61.965 23.1712L70.92 21.4462C71.1307 21.405 71.3487 21.4238 71.5493 21.5003C71.7499 21.5769 71.925 21.7081 72.0547 21.8792C72.1844 22.0503 72.2635 22.2544 72.283 22.4682C72.3025 22.682 72.2616 22.897 72.165 23.0887L46.7025 73.9012L46.2412 74.6137C46.1421 74.775 46.003 74.908 45.8375 75C45.672 75.092 45.4856 75.1397 45.2962 75.1387C44.6325 75.1387 43.9837 74.5687 44.1525 73.755L48.2587 53.8762C48.299 53.6815 48.2881 53.4797 48.2269 53.2905C48.1657 53.1013 48.0564 52.9312 47.9097 52.797C47.7629 52.6628 47.5839 52.569 47.39 52.5248C47.1961 52.4806 46.9941 52.4876 46.8037 52.545L41.43 54.1762C41.2397 54.2342 41.0377 54.2417 40.8436 54.1981C40.6496 54.1544 40.4702 54.0611 40.3231 53.9273C40.1761 53.7934 40.0663 53.6236 40.0046 53.4345C39.9429 53.2455 39.9314 53.0436 39.9712 52.8487L42.5587 40.1925C42.598 40.0035 42.5889 39.8077 42.5324 39.6232C42.4759 39.4386 42.3737 39.2713 42.2354 39.1368C42.0971 39.0022 41.927 38.9047 41.741 38.8532C41.555 38.8018 41.359 38.7981 41.1712 38.8425L32.4712 40.8525C32.2976 40.8924 32.1171 40.8913 31.9439 40.8493C31.7708 40.8073 31.6098 40.7256 31.4737 40.6106C31.3376 40.4957 31.2302 40.3506 31.1599 40.1869C31.0896 40.0232 31.0584 39.8453 31.0687 39.6675H31.0725ZM87.2325 9.94498L64.815 14.025L62.775 21.1012L70.5637 19.6012C71.1673 19.4809 71.7933 19.5491 72.3568 19.7967C72.9203 20.0442 73.394 20.4591 73.7137 20.985C73.9851 21.4224 74.1393 21.9222 74.1617 22.4364C74.184 22.9507 74.0736 23.462 73.8412 23.9212L48.375 74.7375L48.3262 74.8312L48.27 74.9175L47.8125 75.63C47.542 76.0536 47.1696 76.4026 46.7294 76.645C46.2891 76.8874 45.7951 77.0155 45.2925 77.0175C44.8373 77.015 44.3883 76.9122 43.9774 76.7165C43.5665 76.5207 43.2037 76.2368 42.915 75.885C42.6341 75.5373 42.4345 75.1313 42.3307 74.6966C42.2269 74.2619 42.2215 73.8095 42.315 73.3725L46.1737 54.6937L41.9737 55.9687C41.3992 56.1418 40.7864 56.1408 40.2124 55.966C39.6385 55.7911 39.1291 55.4502 38.7487 54.9862C38.4651 54.6399 38.2624 54.2346 38.1553 53.7999C38.0483 53.3653 38.0396 52.9122 38.13 52.4737L40.4925 40.9237L32.8912 42.6787C32.3767 42.7966 31.8402 42.778 31.3351 42.6247C30.8299 42.4715 30.3736 42.1889 30.0112 41.805C29.7303 41.5046 29.5134 41.1502 29.3735 40.7635C29.2336 40.3767 29.1737 39.9656 29.1975 39.555L30.6562 14.9175L2.75623 9.92998C2.32636 9.85241 1.88328 9.89912 1.47904 10.0646C1.0748 10.2301 0.726194 10.5076 0.474168 10.8644C0.222143 11.2211 0.0771685 11.6424 0.0562769 12.0787C0.0353853 12.515 0.139444 12.9483 0.356228 13.3275L43.425 88.8412C43.6262 89.1947 43.9177 89.4883 44.2696 89.6921C44.6216 89.8959 45.0214 90.0024 45.4281 90.0009C45.8348 89.9994 46.2338 89.8898 46.5842 89.6834C46.9347 89.477 47.2239 89.1812 47.4225 88.8262L89.6475 13.32C89.8591 12.9401 89.9585 12.5079 89.934 12.0737C89.9095 11.6395 89.7621 11.2212 89.509 10.8675C89.256 10.5139 88.9076 10.2394 88.5046 10.076C88.1015 9.91272 87.6604 9.86726 87.2325 9.94498Z" fill="#6097CA"/>
</g>
<defs>
<clipPath id="clip0_2065_2">
<rect width="90" height="90" fill="white"/>
</clipPath>
</defs>
</svg>
